<svg width="40.000000" height="40.000000" viewBox="0 0 40 40" fill="none" xmlns="http://www.w3.org/2000/svg" xmlns:xlink="http://www.w3.org/1999/xlink">
	<desc>
			Created with Pixso.
	</desc>
	<defs>
		<clipPath id="clip1_234">
			<rect id="Plus" width="22.000000" height="22.000000" transform="translate(9.000000 9.000000)" fill="white" fill-opacity="0"/>
		</clipPath>
	</defs>
	<rect id="Rectangle 5" rx="10.000000" width="40.000000" height="40.000000" fill="#9E78CF" fill-opacity="1.000000"/>
	<rect id="Plus" width="22.000000" height="22.000000" transform="translate(9.000000 9.000000)" fill="#FFFFFF" fill-opacity="0"/>
	<g clip-path="url(#clip1_234)">
		<path id="Vector" d="M28.25 20C28.25 20.18 28.17 20.35 28.04 20.48C27.91 20.61 27.74 20.68 27.56 20.68L20.68 20.68L20.68 27.56C20.68 27.74 20.61 27.91 20.48 28.04C20.35 28.17 20.18 28.25 20 28.25C19.81 28.25 19.64 28.17 19.51 28.04C19.38 27.91 19.31 27.74 19.31 27.56L19.31 20.68L12.43 20.68C12.25 20.68 12.08 20.61 11.95 20.48C11.82 20.35 11.75 20.18 11.75 20C11.75 19.81 11.82 19.64 11.95 19.51C12.08 19.38 12.25 19.31 12.43 19.31L19.31 19.31L19.31 12.43C19.31 12.25 19.38 12.08 19.51 11.95C19.64 11.82 19.81 11.75 20 11.75C20.18 11.75 20.35 11.82 20.48 11.95C20.61 12.08 20.68 12.25 20.68 12.43L20.68 19.31L27.56 19.31C27.74 19.31 27.91 19.38 28.04 19.51C28.17 19.64 28.25 19.81 28.25 20Z" fill="#FFFFFF" fill-opacity="1.000000" fill-rule="nonzero"/>
	</g>
</svg>
