<svg width="30.000000" height="30.000000" viewBox="0 0 30 30" fill="none" xmlns="http://www.w3.org/2000/svg" xmlns:xlink="http://www.w3.org/1999/xlink">
	<desc>
			Created with Pixso.
	</desc>
	<defs>
		<clipPath id="clip1_184">
			<rect id="TrashSimple" width="22.000000" height="22.000000" transform="translate(3.048706 4.000000)" fill="white" fill-opacity="0"/>
		</clipPath>
	</defs>
	<rect id="Rectangle 3" x="-0.951294" rx="5.000000" width="30.000000" height="30.000000" fill="#15101C" fill-opacity="1.000000"/>
	<rect id="TrashSimple" width="22.000000" height="22.000000" transform="translate(3.048706 4.000000)" fill="#FFFFFF" fill-opacity="0"/>
	<g clip-path="url(#clip1_184)">
		<path id="Vector" d="M21.61 8.12L6.48 8.12C6.3 8.12 6.12 8.19 6 8.32C5.87 8.45 5.79 8.63 5.79 8.81C5.79 8.99 5.87 9.16 6 9.29C6.12 9.42 6.3 9.5 6.48 9.5L7.17 9.5L7.17 21.87C7.17 22.23 7.31 22.58 7.57 22.84C7.83 23.1 8.18 23.25 8.54 23.25L19.54 23.25C19.91 23.25 20.26 23.1 20.52 22.84C20.77 22.58 20.92 22.23 20.92 21.87L20.92 9.5L21.61 9.5C21.79 9.5 21.96 9.42 22.09 9.29C22.22 9.16 22.29 8.99 22.29 8.81C22.29 8.63 22.22 8.45 22.09 8.32C21.96 8.19 21.79 8.12 21.61 8.12ZM19.54 21.87L8.54 21.87L8.54 9.5L19.54 9.5L19.54 21.87ZM9.92 6.06C9.92 5.88 9.99 5.7 10.12 5.57C10.25 5.44 10.42 5.37 10.61 5.37L17.48 5.37C17.66 5.37 17.84 5.44 17.97 5.57C18.1 5.7 18.17 5.88 18.17 6.06C18.17 6.24 18.1 6.41 17.97 6.54C17.84 6.67 17.66 6.75 17.48 6.75L10.61 6.75C10.42 6.75 10.25 6.67 10.12 6.54C9.99 6.41 9.92 6.24 9.92 6.06Z" fill="#3E1671" fill-opacity="1.000000" fill-rule="nonzero"/>
	</g>
</svg>
